<svg width="35" height="32" viewBox="0 0 35 32" fill="none" xmlns="http://www.w3.org/2000/svg">
<path d="M15.6771 25.3333C16.6007 25.3333 17.3785 25.0444 18.0104 24.4667C18.6424 23.8889 18.9583 23.1778 18.9583 22.3333V17.3333H21.875C22.2882 17.3333 22.6348 17.2053 22.9148 16.9493C23.1938 16.6942 23.3333 16.3778 23.3333 16C23.3333 15.6222 23.1938 15.3053 22.9148 15.0493C22.6348 14.7942 22.2882 14.6667 21.875 14.6667H18.9583C18.5451 14.6667 18.199 14.7942 17.92 15.0493C17.64 15.3053 17.5 15.6222 17.5 16V19.8333C17.2326 19.6555 16.9473 19.5275 16.644 19.4493C16.3397 19.372 16.0174 19.3333 15.6771 19.3333C14.7535 19.3333 13.9757 19.6222 13.3438 20.2C12.7118 20.7778 12.3958 21.4889 12.3958 22.3333C12.3958 23.1778 12.7118 23.8889 13.3438 24.4667C13.9757 25.0444 14.7535 25.3333 15.6771 25.3333ZM8.75 29.3333C7.94792 29.3333 7.26153 29.0724 6.69084 28.5507C6.11917 28.028 5.83334 27.4 5.83334 26.6667V5.33332C5.83334 4.59999 6.11917 3.97199 6.69084 3.44932C7.26153 2.92755 7.94792 2.66666 8.75 2.66666H19.2135C19.6024 2.66666 19.9733 2.73332 20.3263 2.86666C20.6782 2.99999 20.9879 3.18888 21.2552 3.43332L28.3281 9.89999C28.5955 10.1444 28.8021 10.4275 28.9479 10.7493C29.0938 11.072 29.1667 11.4111 29.1667 11.7667V26.6667C29.1667 27.4 28.8813 28.028 28.3106 28.5507C27.739 29.0724 27.0521 29.3333 26.25 29.3333H8.75ZM20.4167 12H26.25L18.9583 5.33332V10.6667C18.9583 11.0444 19.0983 11.3609 19.3783 11.616C19.6574 11.872 20.0035 12 20.4167 12Z" fill="white"/>
</svg>
