<svg width="35" height="35" viewBox="0 0 35 35" fill="none" xmlns="http://www.w3.org/2000/svg">
<path opacity="0.5" d="M24.7917 13.1279C27.9635 13.1454 29.6815 13.2869 30.8015 14.4069C32.0833 15.6888 32.0833 17.7508 32.0833 21.875V23.3333C32.0833 27.459 32.0833 29.5211 30.8015 30.8029C29.521 32.0833 27.4575 32.0833 23.3333 32.0833H11.6667C7.5425 32.0833 5.47896 32.0833 4.19854 30.8029C2.91666 29.5196 2.91666 27.459 2.91666 23.3333V21.875C2.91666 17.7508 2.91666 15.6888 4.19854 14.4069C5.31854 13.2869 7.03646 13.1454 10.2083 13.1279" stroke="white" stroke-width="1.5" stroke-linecap="round"/>
<path d="M17.5 2.91669V21.875M17.5 21.875L13.125 16.7709M17.5 21.875L21.875 16.7709" stroke="white" stroke-width="1.5" stroke-linecap="round" stroke-linejoin="round"/>
</svg>
