<svg width="32" height="31" viewBox="0 0 32 31" fill="none" xmlns="http://www.w3.org/2000/svg">
<path d="M19.0019 30.7037H12.9991C12.623 30.7037 12.2582 30.5868 11.9651 30.3724C11.6721 30.158 11.4684 29.8589 11.388 29.5247L10.7168 26.6987C9.82139 26.3418 8.97239 25.8956 8.18538 25.3682L5.15597 26.2457C4.79739 26.3497 4.41049 26.339 4.05951 26.2154C3.70853 26.0918 3.4146 25.8627 3.22651 25.5662L0.218542 20.8397C0.032432 20.5429 -0.0374289 20.1974 0.0203886 19.8598C0.0782061 19.5222 0.260279 19.2124 0.536819 18.9812L2.8868 17.0312C2.77993 16.1478 2.77993 15.2565 2.8868 14.3732L0.536819 12.4277C0.259887 12.1963 0.0775668 11.8863 0.0197399 11.5483C-0.0380871 11.2104 0.0320098 10.8646 0.218542 10.5677L3.21992 5.83817C3.408 5.54165 3.70194 5.31256 4.05292 5.18896C4.4039 5.06535 4.7908 5.05467 5.14937 5.15867L8.17879 6.03617C8.58117 5.76617 9.00004 5.51417 9.43211 5.28617C9.84933 5.07317 10.2781 4.87967 10.7168 4.70717L11.3896 1.88417C11.4697 1.54997 11.673 1.25071 11.9657 1.036C12.2584 0.821289 12.6231 0.704034 12.9991 0.703674H19.0019C19.3779 0.704034 19.7426 0.821289 20.0353 1.036C20.328 1.25071 20.5313 1.54997 20.6114 1.88417L21.2908 4.70867C22.1851 5.06758 23.0338 5.51369 23.8222 6.03917L26.8533 5.16167C27.2116 5.05805 27.5982 5.06893 27.9488 5.19252C28.2994 5.3161 28.5931 5.54497 28.7811 5.84117L31.7825 10.5707C32.1651 11.1812 32.0331 11.9537 31.4642 12.4292L29.1142 14.3792C29.2211 15.2625 29.2211 16.1538 29.1142 17.0372L31.4642 18.9872C32.0331 19.4642 32.1651 20.2352 31.7825 20.8457L28.7811 25.5752C28.593 25.8717 28.2991 26.1008 27.9481 26.2244C27.5971 26.348 27.2102 26.3587 26.8516 26.2547L23.8222 25.3772C23.0358 25.9042 22.1874 26.3499 21.2925 26.7062L20.6114 29.5247C20.531 29.8586 20.3276 30.1575 20.0349 30.3719C19.7422 30.5863 19.3777 30.7034 19.0019 30.7037V30.7037ZM15.9939 9.70367C14.2444 9.70367 12.5666 10.3358 11.3295 11.461C10.0925 12.5863 9.39748 14.1124 9.39748 15.7037C9.39748 17.295 10.0925 18.8211 11.3295 19.9463C12.5666 21.0715 14.2444 21.7037 15.9939 21.7037C17.7434 21.7037 19.4212 21.0715 20.6583 19.9463C21.8954 18.8211 22.5903 17.295 22.5903 15.7037C22.5903 14.1124 21.8954 12.5863 20.6583 11.461C19.4212 10.3358 17.7434 9.70367 15.9939 9.70367V9.70367Z" fill="white"/>
</svg>
