<svg width="36" height="42" viewBox="0 0 36 42" fill="none" xmlns="http://www.w3.org/2000/svg">
<path d="M1 17H7V29H1V17ZM15 11H21V35H15V11Z" fill="#F5FBF2" stroke="white" stroke-width="2" stroke-linejoin="round"/>
<mask id="path-2-inside-1_17_475" fill="white">
<path d="M18 40V36V40Z"/>
</mask>
<path d="M18 40V36V40Z" fill="#F5FBF2"/>
<path d="M16 40C16 41.1046 16.8954 42 18 42C19.1046 42 20 41.1046 20 40H16ZM20 36C20 34.8954 19.1046 34 18 34C16.8954 34 16 34.8954 16 36H20ZM20 40V36H16V40H20Z" fill="white" mask="url(#path-2-inside-1_17_475)"/>
<path d="M29 9H35V16H29V9Z" fill="#F5FBF2" stroke="white" stroke-width="2" stroke-linejoin="round"/>
<mask id="path-5-inside-2_17_475" fill="white">
<path d="M4 16V6V16ZM32 30V17V30ZM32 8V0V8Z"/>
</mask>
<path d="M4 16V6V16ZM32 30V17V30ZM32 8V0V8Z" fill="#F5FBF2"/>
<path d="M2 16C2 17.1046 2.89543 18 4 18C5.10457 18 6 17.1046 6 16H2ZM6 6C6 4.89543 5.10457 4 4 4C2.89543 4 2 4.89543 2 6H6ZM30 30C30 31.1046 30.8954 32 32 32C33.1046 32 34 31.1046 34 30H30ZM34 17C34 15.8954 33.1046 15 32 15C30.8954 15 30 15.8954 30 17H34ZM30 8C30 9.10457 30.8954 10 32 10C33.1046 10 34 9.10457 34 8H30ZM34 0C34 -1.10457 33.1046 -2 32 -2C30.8954 -2 30 -1.10457 30 0H34ZM6 16V6H2V16H6ZM2 6V16H6V6H2ZM34 30V17H30V30H34ZM30 17V30H34V17H30ZM34 8V0H30V8H34Z" fill="white" mask="url(#path-5-inside-2_17_475)"/>
</svg>
