<svg width="31" height="20" viewBox="0 0 31 20" fill="none" xmlns="http://www.w3.org/2000/svg">
<path d="M30.1165 0C29.9615 0 29.8065 0.0249999 29.636 0.0749999C25.079 1.45 20.2895 2.125 15.5 2.125C10.7105 2.125 5.921 1.4375 1.364 0.0749999C1.21022 0.0283296 1.04776 0.00297195 0.8835 0C0.3565 0 0 0.2875 0 0.7875V19.225C0 19.7125 0.3565 20 0.8835 20C1.0385 20 1.1935 19.975 1.364 19.925C5.921 18.55 10.7105 17.875 15.5 17.875C20.2895 17.875 25.079 18.5625 29.636 19.925C29.8065 19.975 29.9615 20 30.1165 20C30.628 20 31 19.7125 31 19.2125V0.7875C31 0.2875 30.628 0 30.1165 0Z" fill="#3CCB25"/>
</svg>
