<svg width="32" height="27" viewBox="0 0 32 27" fill="none" xmlns="http://www.w3.org/2000/svg">
<path d="M8.8 1L8.8007 1C10.0552 0.99913 11.2907 1.29552 12.4025 1.8632C13.5142 2.43085 14.4686 3.25263 15.1862 4.25756C15.3737 4.52025 15.6766 4.67625 15.9994 4.67646C16.3222 4.67666 16.6252 4.52104 16.8131 4.25859C18.2227 2.2897 20.5557 1 23.2 1C27.5237 1 31 4.44206 31 8.65233C31 12.588 28.6177 16.4755 25.3954 19.6751C22.3089 22.7398 18.6135 25.0101 16 25.9432C13.3865 25.0101 9.69107 22.7398 6.6046 19.6751C3.38226 16.4755 1 12.588 1 8.65233C1 4.44206 4.47626 1 8.8 1Z" fill="#F5FBF2" stroke="white" stroke-width="2" stroke-linecap="round" stroke-linejoin="round"/>
</svg>
