<svg width="35" height="33" viewBox="0 0 35 33" fill="none" xmlns="http://www.w3.org/2000/svg">
<path d="M21.4843 2.63129C21.5242 2.58751 21.5739 2.55125 21.6304 2.52474C21.6869 2.49823 21.7489 2.48201 21.8128 2.47707C21.8767 2.47213 21.9411 2.47858 22.002 2.49601C22.0629 2.51345 22.1192 2.54151 22.1673 2.57849L23.9097 3.91831L18.4251 9.89965H22.0595L26.0438 5.55679L29.1692 7.96087C29.2616 8.0321 29.3185 8.13199 29.3277 8.23925C29.3368 8.34652 29.2976 8.45267 29.2184 8.53508L27.913 9.89965H31.5908C32.0464 9.31798 32.2424 8.61113 32.1421 7.91217C32.0417 7.2132 31.6519 6.57034 31.0459 6.10459L24.0459 0.720563C23.7083 0.461185 23.3135 0.264565 22.8857 0.142712C22.458 0.02086 22.0063 -0.0236676 21.5581 0.0118495C21.11 0.0473665 20.6749 0.162182 20.2793 0.349285C19.8838 0.536388 19.5361 0.79185 19.2576 1.10007L11.3059 9.89965H14.9195L21.4843 2.63129ZM25.0676 21.4498C24.6912 21.4498 24.3303 21.5802 24.0642 21.8123C23.7981 22.0444 23.6486 22.3591 23.6486 22.6873C23.6486 23.0156 23.7981 23.3303 24.0642 23.5624C24.3303 23.7945 24.6912 23.9249 25.0676 23.9249H28.8514C29.2277 23.9249 29.5886 23.7945 29.8547 23.5624C30.1208 23.3303 30.2703 23.0156 30.2703 22.6873C30.2703 22.3591 30.1208 22.0444 29.8547 21.8123C29.5886 21.5802 29.2277 21.4498 28.8514 21.4498H25.0676ZM2.83784 10.3122C2.83784 9.98395 2.98733 9.66918 3.25343 9.4371C3.51953 9.20502 3.88044 9.07464 4.25676 9.07464H10.1746L12.4297 6.5996H4.25676C3.12779 6.5996 2.04507 6.99075 1.24678 7.68698C0.448478 8.38322 0 9.32753 0 10.3122V27.6374C0 29.0597 0.647802 30.4237 1.8009 31.4293C2.95399 32.435 4.51793 33 6.14865 33H28.8514C30.4821 33 32.046 32.435 33.1991 31.4293C34.3522 30.4237 35 29.0597 35 27.6374V16.9123C35 15.49 34.3522 14.126 33.1991 13.1203C32.046 12.1147 30.4821 11.5497 28.8514 11.5497H4.25676C3.88044 11.5497 3.51953 11.4193 3.25343 11.1872C2.98733 10.9551 2.83784 10.6404 2.83784 10.3122ZM2.83784 27.6374V13.8135C3.28243 13.9505 3.75919 14.0247 4.25676 14.0247H28.8514C30.6789 14.0247 32.1622 15.3183 32.1622 16.9123V27.6374C32.1622 28.4032 31.8133 29.1377 31.1924 29.6792C30.5715 30.2207 29.7294 30.525 28.8514 30.525H6.14865C5.27057 30.525 4.42845 30.2207 3.80755 29.6792C3.18665 29.1377 2.83784 28.4032 2.83784 27.6374Z" fill="#F5FBF2"/>
</svg>
