<svg width="35" height="35" viewBox="0 0 35 35" fill="none" xmlns="http://www.w3.org/2000/svg">
<path fill-rule="evenodd" clip-rule="evenodd" d="M4.84615 0H4.71154C4.095 0 3.56462 2.00577e-08 3.09615 0.110376C2.37094 0.283653 1.70787 0.654305 1.18039 1.18127C0.652914 1.70822 0.281636 2.37092 0.107692 3.09592C-1.00296e-07 3.56434 0 4.09199 0 4.71118V11.4414C0 12.0579 2.00593e-08 12.5883 0.110385 13.0567C0.283675 13.7818 0.654356 14.4449 1.18136 14.9723C1.70836 15.4997 2.3711 15.871 3.09615 16.0449C3.56462 16.1526 4.09231 16.1526 4.71154 16.1526H11.4423C12.0588 16.1526 12.5892 16.1526 13.0577 16.0422C13.7829 15.869 14.446 15.4983 14.9735 14.9713C15.5009 14.4444 15.8722 13.7817 16.0462 13.0567C16.1538 12.5883 16.1538 12.0606 16.1538 11.4414V4.71118C16.1538 4.09469 16.1538 3.56434 16.0435 3.09592C15.8702 2.37076 15.4995 1.70773 14.9725 1.1803C14.4455 0.652864 13.7827 0.281614 13.0577 0.107684C12.5892 -1.00289e-07 12.0615 0 11.4423 0H4.84615ZM3.72346 2.72979C3.83923 2.70287 4.01962 2.6921 4.84615 2.6921H11.3077C12.1369 2.6921 12.3146 2.70018 12.4304 2.72979C12.6722 2.78762 12.8933 2.91131 13.0692 3.08713C13.245 3.26295 13.3687 3.48404 13.4265 3.72587C13.4535 3.83894 13.4615 4.01661 13.4615 4.84578V11.3068C13.4615 12.136 13.4535 12.3137 13.4238 12.4294C13.366 12.6713 13.2423 12.8923 13.0665 13.0682C12.8906 13.244 12.6695 13.3677 12.4277 13.4255C12.3173 13.4497 12.1396 13.4605 11.3077 13.4605H4.84615C4.01692 13.4605 3.83923 13.4524 3.72346 13.4228C3.48161 13.365 3.26051 13.2413 3.08467 13.0655C2.90884 12.8897 2.78514 12.6686 2.72731 12.4267C2.70308 12.3164 2.69231 12.1387 2.69231 11.3068V4.84578C2.69231 4.01661 2.70038 3.83894 2.73 3.72317C2.78783 3.48134 2.91153 3.26026 3.08736 3.08444C3.2632 2.90861 3.4843 2.78493 3.72615 2.7271L3.72346 2.72979ZM23.6923 0H23.5577C22.9412 0 22.4108 2.00577e-08 21.9423 0.110376C21.2171 0.283653 20.554 0.654305 20.0265 1.18127C19.4991 1.70822 19.1278 2.37092 18.9538 3.09592C18.8462 3.56434 18.8462 4.09199 18.8462 4.71118V11.4414C18.8462 12.0579 18.8462 12.5883 18.9565 13.0567C19.1298 13.7818 19.5005 14.4449 20.0275 14.9723C20.5545 15.4997 21.2173 15.871 21.9423 16.0449C22.4108 16.1526 22.9385 16.1526 23.5577 16.1526H30.2885C30.905 16.1526 31.4354 16.1526 31.9038 16.0422C32.6291 15.869 33.2921 15.4983 33.8196 14.9713C34.3471 14.4444 34.7184 13.7817 34.8923 13.0567C35 12.5883 35 12.0606 35 11.4414V4.71118C35 4.09469 35 3.56434 34.8896 3.09592C34.7163 2.37076 34.3456 1.70773 33.8186 1.1803C33.2916 0.652864 32.6289 0.281614 31.9038 0.107684C31.4354 -1.00289e-07 30.9077 0 30.2885 0H23.6923ZM22.5696 2.72979C22.6854 2.70287 22.8658 2.6921 23.6923 2.6921H30.1538C30.9831 2.6921 31.1608 2.70018 31.2765 2.72979C31.5184 2.78762 31.7395 2.91131 31.9153 3.08713C32.0912 3.26295 32.2149 3.48404 32.2727 3.72587C32.2996 3.83894 32.3077 4.01661 32.3077 4.84578V11.3068C32.3077 12.136 32.2969 12.3137 32.27 12.4294C32.2122 12.6713 32.0885 12.8923 31.9126 13.0682C31.7368 13.244 31.5157 13.3677 31.2738 13.4255C31.1608 13.4524 30.9831 13.4605 30.1538 13.4605H23.6923C22.8631 13.4605 22.6854 13.4524 22.5696 13.4228C22.3278 13.365 22.1067 13.2413 21.9308 13.0655C21.755 12.8897 21.6313 12.6686 21.5735 12.4267C21.5492 12.3164 21.5385 12.1387 21.5385 11.3068V4.84578C21.5385 4.01661 21.5465 3.83894 21.5762 3.72317C21.634 3.48134 21.7577 3.26026 21.9335 3.08444C22.1094 2.90861 22.3305 2.78493 22.5723 2.7271L22.5696 2.72979ZM4.71154 18.8447H11.4423C12.0588 18.8447 12.5892 18.8447 13.0577 18.9551C13.7829 19.1284 14.446 19.499 14.9735 20.026C15.5009 20.5529 15.8722 21.2156 16.0462 21.9406C16.1538 22.409 16.1538 22.9367 16.1538 23.5559V30.2861C16.1538 30.9026 16.1538 31.433 16.0435 31.9014C15.8702 32.6265 15.4995 33.2896 14.9725 33.817C14.4455 34.3444 13.7827 34.7157 13.0577 34.8896C12.5892 34.9973 12.0615 34.9973 11.4423 34.9973H4.71154C4.095 34.9973 3.56462 34.9973 3.09615 34.8869C2.37094 34.7137 1.70787 34.343 1.18039 33.816C0.652914 33.2891 0.281636 32.6264 0.107692 31.9014C-1.00296e-07 31.433 0 30.9053 0 30.2861V23.5559C0 22.9394 2.00593e-08 22.409 0.110385 21.9406C0.283675 21.2155 0.654356 20.5524 1.18136 20.025C1.70836 19.4976 2.3711 19.1263 3.09615 18.9524C3.56462 18.8447 4.09231 18.8447 4.71154 18.8447ZM4.84615 21.5368C4.01692 21.5368 3.83923 21.5449 3.72346 21.5745C3.48161 21.6323 3.26051 21.756 3.08467 21.9318C2.90884 22.1077 2.78514 22.3287 2.72731 22.5706C2.70308 22.6809 2.69231 22.8586 2.69231 23.6905V30.1515C2.69231 30.9807 2.70038 31.1584 2.73 31.2741C2.78783 31.516 2.91153 31.737 3.08736 31.9129C3.2632 32.0887 3.4843 32.2124 3.72615 32.2702C3.83923 32.2971 4.01692 32.3052 4.84615 32.3052H11.3077C12.1369 32.3052 12.3146 32.2944 12.4304 32.2675C12.6722 32.2097 12.8933 32.086 13.0692 31.9102C13.245 31.7344 13.3687 31.5133 13.4265 31.2714C13.4535 31.1584 13.4615 30.9807 13.4615 30.1515V23.6905C13.4615 22.8613 13.4535 22.6836 13.4238 22.5679C13.366 22.326 13.2423 22.105 13.0665 21.9291C12.8906 21.7533 12.6695 21.6296 12.4277 21.5718C12.3173 21.5476 12.1396 21.5368 11.3077 21.5368H4.84615ZM23.6923 18.8447H23.5577C22.9412 18.8447 22.4108 18.8447 21.9423 18.9551C21.2171 19.1284 20.554 19.499 20.0265 20.026C19.4991 20.5529 19.1278 21.2156 18.9538 21.9406C18.8462 22.409 18.8462 22.9367 18.8462 23.5559V30.2861C18.8462 30.9026 18.8462 31.433 18.9565 31.9014C19.1298 32.6265 19.5005 33.2896 20.0275 33.817C20.5545 34.3444 21.2173 34.7157 21.9423 34.8896C22.4108 35 22.9412 35 23.5577 35H30.2885C30.905 35 31.4354 35 31.9038 34.8896C32.6286 34.7159 33.2911 34.3451 33.818 33.8181C34.345 33.2912 34.7159 32.6287 34.8896 31.9041C35 31.4357 35 30.9053 35 30.2888V23.5559C35 22.9394 35 22.409 34.8896 21.9406C34.7163 21.2155 34.3456 20.5524 33.8186 20.025C33.2916 19.4976 32.6289 19.1263 31.9038 18.9524C31.4354 18.8447 30.9077 18.8447 30.2885 18.8447H23.6923ZM22.5696 21.5745C22.6854 21.5476 22.8658 21.5368 23.6923 21.5368H30.1538C30.9831 21.5368 31.1608 21.5449 31.2765 21.5745C31.5184 21.6323 31.7395 21.756 31.9153 21.9318C32.0912 22.1077 32.2149 22.3287 32.2727 22.5706C32.2996 22.6836 32.3077 22.8613 32.3077 23.6905V30.1515C32.3077 30.9807 32.2969 31.1584 32.27 31.2741C32.2122 31.516 32.0885 31.737 31.9126 31.9129C31.7368 32.0887 31.5157 32.2124 31.2738 32.2702C31.1608 32.2971 30.9831 32.3052 30.1538 32.3052H23.6923C22.8631 32.3052 22.6854 32.2944 22.5696 32.2675C22.3278 32.2097 22.1067 32.086 21.9308 31.9102C21.755 31.7344 21.6313 31.5133 21.5735 31.2714C21.5492 31.1611 21.5385 30.9834 21.5385 30.1515V23.6905C21.5385 22.8613 21.5465 22.6836 21.5762 22.5679C21.634 22.326 21.7577 22.105 21.9335 21.9291C22.1094 21.7533 22.3305 21.6296 22.5723 21.5718L22.5696 21.5745Z" fill="black"/>
</svg>
