<svg width="21" height="14" viewBox="0 0 21 14" fill="none" xmlns="http://www.w3.org/2000/svg">
<path id="Vector" d="M20.4015 0C20.2965 0 20.1915 0.0175 20.076 0.0524999C16.989 1.015 13.7445 1.4875 10.5 1.4875C7.2555 1.4875 4.011 1.00625 0.924 0.0524999C0.819829 0.0198307 0.709776 0.00208037 0.5985 0C0.2415 0 0 0.20125 0 0.55125V13.4575C0 13.7987 0.2415 14 0.5985 14C0.7035 14 0.8085 13.9825 0.924 13.9475C4.011 12.985 7.2555 12.5125 10.5 12.5125C13.7445 12.5125 16.989 12.9938 20.076 13.9475C20.1915 13.9825 20.2965 14 20.4015 14C20.748 14 21 13.7988 21 13.4488V0.55125C21 0.20125 20.748 0 20.4015 0Z" fill="#FF3333"/>
</svg>
