<svg width="33" height="32" viewBox="0 0 33 32" fill="none" xmlns="http://www.w3.org/2000/svg">
<path d="M15 32C6.7155 32 0 24.8368 0 16C0 7.1632 6.7155 4.50926e-06 15 4.50926e-06C17.329 -0.00186183 19.6263 0.575641 21.7094 1.68663C23.7925 2.79762 25.604 4.41148 27 6.4H22.935C21.2028 4.77082 19.0668 3.70938 16.7831 3.34304C14.4994 2.97671 12.1651 3.32105 10.0603 4.33474C7.95556 5.34844 6.16972 6.98842 4.9171 9.0579C3.66449 11.1274 2.9983 13.5384 2.9985 16.0018C2.99869 18.4651 3.66525 20.876 4.91819 22.9453C6.17113 25.0146 7.95723 26.6542 10.0622 27.6675C12.1671 28.6809 14.5014 29.0248 16.785 28.658C19.0687 28.2913 21.2046 27.2295 22.9365 25.6H27.0015C25.6054 27.5887 23.7936 29.2027 21.7102 30.3137C19.6268 31.4247 17.3292 32.0021 15 32ZM25.5 22.4V17.6H13.5V14.4H25.5V9.6L33 16L25.5 22.4Z" fill="#FF3333"/>
</svg>
